<svg width="90" height="90" viewBox="0 0 90 90" fill="none" xmlns="http://www.w3.org/2000/svg">
<path d="M63.743 27.5009C60.2017 25.844 56.4552 24.6666 52.6026 24C52.1227 24.8676 51.562 26.0345 51.1754 26.9628C47.0216 26.3382 42.906 26.3382 38.8286 26.9628C38.4421 26.0347 37.8688 24.8676 37.3845 24C33.5281 24.6669 29.7784 25.8473 26.2354 27.5096C19.185 38.1638 17.2737 48.5531 18.2293 58.7954C22.9055 62.2875 27.4373 64.4089 31.8927 65.797C33 64.2743 33.9788 62.6622 34.8191 60.9773C33.2194 60.3683 31.6772 59.6178 30.2109 58.7346C30.5968 58.4486 30.9736 58.1506 31.3407 57.8409C40.2258 61.9968 49.88 61.9968 58.6592 57.8409C59.028 58.1485 59.4046 58.4465 59.7888 58.7346C58.3202 59.6201 56.7751 60.3721 55.1722 60.9818C56.0172 62.6735 56.9943 64.2872 58.0986 65.8013C62.5582 64.4133 67.0942 62.2919 71.7705 58.7954C72.8918 46.9221 69.8552 36.628 63.743 27.5007V27.5009ZM36.0297 52.4966C33.3623 52.4966 31.1749 50.0065 31.1749 46.9743C31.1749 43.942 33.3157 41.4477 36.0297 41.4477C38.7438 41.4477 40.931 43.9376 40.8844 46.9743C40.8886 50.0065 38.7438 52.4966 36.0297 52.4966ZM53.9701 52.4966C51.3028 52.4966 49.1156 50.0065 49.1156 46.9743C49.1156 43.942 51.2562 41.4477 53.9701 41.4477C56.6842 41.4477 58.8714 43.9376 58.8248 46.9743C58.8248 50.0065 56.6842 52.4966 53.9701 52.4966V52.4966Z" fill="white"/>
</svg>
