<svg width="90" height="90" viewBox="0 0 90 90" fill="none" xmlns="http://www.w3.org/2000/svg">
<path d="M73 27.5671C70.903 28.496 68.6788 29.1058 66.4012 29.3761C68.7735 27.9543 70.5951 25.7027 71.4528 23.0199C69.1976 24.3582 66.7302 25.3011 64.1573 25.8079C62.0614 23.5751 59.0757 22.1797 55.771 22.1797C49.426 22.1797 44.2816 27.3238 44.2816 33.6684C44.2816 34.569 44.3833 35.4458 44.5791 36.2869C35.0307 35.8076 26.5651 31.2337 20.8983 24.2828C19.9096 25.9796 19.343 27.9534 19.343 30.0586C19.343 34.0447 21.3715 37.5611 24.4541 39.6215C22.6296 39.5644 20.8453 39.0716 19.2501 38.1843C19.2494 38.2324 19.2494 38.2806 19.2494 38.3289C19.2494 43.8954 23.2097 48.5391 28.4653 49.5945C26.7735 50.0547 24.9989 50.122 23.277 49.7914C24.7389 54.3558 28.982 57.6773 34.0093 57.7703C30.0773 60.8516 25.1233 62.6885 19.7407 62.6885C18.8132 62.6885 17.8988 62.634 17 62.5279C22.0844 65.7877 28.1234 67.6897 34.6116 67.6897C55.7443 67.6897 67.3003 50.183 67.3003 35.0008C67.3003 34.5025 67.2893 34.0071 67.267 33.5144C69.5163 31.8884 71.4576 29.8745 73 27.5671" fill="white"/>
</svg>
